# xmcd
#
# Track frame offsets:
#  182
#  19195
#  41110
#  69787
#
# Disc length: 1310 seconds
#
# Revision: 0
# Processed by: cddbd v1.5.1PL0 Copyright (c) Steve Scherf et al.
# Submitted via: Collectorz.com_Music_Collector 6.9
#
DISCID=2b051c04
DTITLE=Joe - All The Things (Your Man Won't Do)
DYEAR=1995
DGENRE=
TTITLE0=Video Version
TTITLE1=Radio Edit
TTITLE2=LP Version
TTITLE3=Instrumental
EXTD=
EXTT0=
EXTT1=
EXTT2=
EXTT3=
PLAYORDER=
